# xmcd
#
# Track frame offsets: 
#        150
#        22180
#        43952
#        66546
#        83950
#        101716
#        117997
#        136830
#        156055
#        170868
#
# Disc length: 2563 seconds
#
# Revision: 0
# Processed by: cddbd v1.5.2PL0 Copyright (c) Steve Scherf et al.
# Submitted via: ExactAudioCopy v0.99pb4
#
DISCID=930a010a
DTITLE=Suz - Shape Of  Fear And Bravery
DYEAR=2009
DGENRE=Trip-Hop
TTITLE0=The Gathering
TTITLE1=Fear
TTITLE2=Shield Machine
TTITLE3=Choke
TTITLE4=Soulminer
TTITLE5=Little By Little
TTITLE6=Countdown
TTITLE7=Unconditional
TTITLE8=Hell Is Absence
TTITLE9=Release
EXTD=
EXTT0=
EXTT1=
EXTT2=
EXTT3=
EXTT4=
EXTT5=
EXTT6=
EXTT7=
EXTT8=
EXTT9=
PLAYORDER=
